<?xml version="1.0" encoding="utf-8"?><!DOCTYPE svg PUBLIC "-//W3C//DTD SVG 1.1//EN" "http://www.w3.org/Graphics/SVG/1.1/DTD/svg11.dtd"><svg version="1.1" xmlns="http://www.w3.org/2000/svg" width="96" height="96" viewBox="0 0 96 96"><g transform="scale(0.047,0.047)"><g><rect fill="#ffffff" width="2048" height="2048" /></g><g transform="translate(0,0)"><g transform="scale(1,-1) translate(0,-871)"><path stroke="none" fill="#000000" d="M326 530H220V162Q264 232 288 298Q326 406 326 529V529V530ZM702 530Q697 490 687 449Q677 408 661 364Q707 344 749 307Q803 260 810 216V530H702V530ZM328 710H86L56 743H770Q784 743 820 781Q857 819 875 819Q882 819 888 815Q918 793 938 773Q970 743 970 725Q970 711 944 711H742Q746 707 746 702Q746 695 731 687Q717 679 717 677Q717 641 707 564H799Q811 572 835 584Q859 596 867 596Q884 596 922 566Q960 536 963 522Q964 517 952 508Q924 488 924 487V-7Q924 -17 924 -27Q924 -38 920 -54Q913 -84 865 -108Q817 -132 791 -128Q773 -125 771 -103Q769 -81 764 -71Q756 -58 724 -43Q692 -28 660 -13Q659 -10 662 -9Q665 -7 673 -7Q690 -7 710 -9Q779 -16 781 -16Q790 -16 796 -14Q808 -8 808 2Q808 11 808 14V178Q804 156 790 144Q776 131 759 131Q735 131 719 153Q701 179 701 225Q701 252 675 297Q667 310 647 339Q600 227 522 147Q458 79 430 83Q442 102 455 122Q509 184 541 261Q591 383 591 539H429Q423 494 417 467Q407 425 394 390Q430 380 464 356Q507 324 514 286Q515 281 515 269Q515 241 499 225Q483 209 461 209Q441 209 429 223Q413 239 413 267Q413 271 415 285Q417 297 413 307Q409 317 385 360Q353 277 303 208Q262 152 218 116V-74Q218 -92 196 -107Q174 -123 148 -123Q130 -123 118 -115Q105 -106 100 -88V602Q115 600 149 590Q183 580 211 568H325V716L328 710ZM594 710H469Q475 698 459 688Q443 678 443 677Q443 641 433 562H592Q592 600 592 637Q592 674 593 710V710V710V711L594 710Z" /></g></g><g transform="translate(1024,0)"><g transform="scale(1,-1) translate(0,-871)"><path stroke="none" fill="#000000" d="M513 190Q512 183 494 178Q476 174 473 172Q451 156 352 52Q292 -9 184 -71Q82 -129 60 -120Q54 -116 54 -112Q90 -78 140 -26Q195 30 241 101Q275 154 297 196Q319 245 320 249Q367 241 415 235Q512 209 509 191V191L513 190ZM906 -96Q882 -106 862 -106Q810 -106 772 6Q746 85 730 111Q714 137 674 175Q633 213 592 251Q620 248 648 246Q792 202 876 104Q904 72 922 33Q940 -7 940 -40Q940 -84 908 -98V-98L906 -96ZM696 746Q713 760 737 774Q765 792 775 792Q791 792 832 760Q873 727 876 715Q877 710 859 696Q842 681 842 676V307Q842 294 819 278Q797 262 769 262Q762 263 759 263Q731 267 720 275Q708 283 708 293V311H338V304Q338 284 322 271Q300 253 255 253Q237 253 221 259Q197 268 197 290V792Q205 791 229 786Q237 784 272 774Q285 770 295 766Q305 762 338 748L696 747V746ZM708 341V690L696 712H338V340H708V340V341V341Z" /></g></g><g transform="translate(0,1024)"><g transform="scale(1,-1) translate(0,-871)"><path stroke="none" fill="#000000" d="M509 620V470H556Q591 506 623 548Q633 561 675 619H509V620ZM381 656V828Q422 825 464 823Q548 813 553 799Q554 794 524 778Q518 776 508 770V658H570Q571 658 612 702Q632 724 647 724Q653 724 661 718Q677 704 689 692Q699 684 708 672Q730 706 758 752Q775 781 777 779Q785 789 855 748Q925 707 935 689Q938 682 928 680Q892 672 890 669Q861 633 819 580Q777 528 726 472H772Q786 472 826 510Q866 548 884 548Q892 548 899 542Q933 514 951 498Q983 466 983 450Q983 434 951 434H691Q629 368 559 314Q489 259 410 216V135Q499 170 579 228Q654 281 699 341Q701 344 707 344Q736 344 806 305Q836 279 867 255Q859 247 845 247Q829 249 821 249Q815 249 812 247Q775 225 739 202Q669 162 599 140Q502 108 410 108V60Q410 23 452 23H781Q788 23 792 24Q806 28 813 40Q841 110 857 148Q869 166 880 186Q882 185 882 173Q882 155 875 99Q868 42 870 34Q884 22 894 10Q904 -1 904 -17Q904 -20 902 -30Q894 -63 853 -87Q839 -95 813 -105H378Q318 -105 302 -86Q286 -67 286 -11V155Q212 123 141 101Q80 83 51 83Q42 83 40 84Q55 96 71 110Q229 203 286 242V340Q310 338 340 336Q370 333 402 328Q434 354 468 381Q509 413 525 437H73L39 473H382V623H165L136 659H382V659V660L381 656Z" /></g></g><g transform="translate(1024,1024)"><g transform="scale(1,-1) translate(0,-871)"><path stroke="none" fill="#000000" d="M620 244Q632 260 645 270Q663 283 679 282Q695 282 730 254Q766 226 761 210Q757 200 733 182Q722 174 722 170V43Q722 21 736 13Q750 5 776 5H868Q871 5 879 5Q887 5 899 21Q909 33 931 92Q942 116 954 141Q956 140 956 126Q956 114 954 79Q952 43 952 41Q952 23 955 17Q968 7 976 -7Q984 -21 984 -39Q984 -52 982 -60Q975 -90 949 -104Q941 -108 923 -111H703Q660 -111 636 -89Q612 -67 612 -23V209H490Q490 153 474 109Q458 65 422 16Q374 -50 254 -100Q148 -143 128 -131Q144 -117 160 -103Q278 -37 319 35Q345 81 359 127Q372 173 372 219Q372 233 372 249Q369 271 368 282L462 244H622H620ZM832 634Q830 646 844 656Q852 665 857 669Q873 683 885 683Q900 683 942 643Q984 603 984 591Q984 581 954 576Q944 575 924 573Q888 549 870 537Q814 501 807 507Q801 511 821 557Q833 587 836 603H240V451L416 467V594Q488 592 516 588Q562 580 558 566Q556 558 538 551Q520 543 520 532V476L643 488Q648 488 673 516Q697 544 717 544Q731 544 769 518Q807 492 807 476Q807 471 801 468Q795 465 780 465L520 445V433Q520 407 532 398Q544 388 576 388H766Q771 387 780 389Q788 391 799 405Q805 412 825 460Q840 498 852 494Q856 493 856 482Q856 472 854 450Q852 428 852 424Q852 406 863 401Q875 395 882 391Q896 383 896 365Q896 355 892 343Q882 315 858 303Q850 299 834 296H516Q470 296 446 318Q422 340 422 385V437L261 425L245 445V276V224Q245 110 185 30Q119 -57 31 -77Q57 -61 91 22Q130 115 130 245V311V673Q160 667 188 657Q203 651 241 633H467V837Q467 840 482 840Q515 840 565 830Q615 820 616 810Q617 803 595 789Q583 782 583 781V745H765Q772 745 807 780Q823 796 837 796Q851 796 865 783Q885 765 897 751Q908 737 908 727Q908 711 872 711H585V631H836V631V632L832 634Z" /></g></g></g></svg>